<svg width="46" height="29" viewBox="0 0 46 29" fill="none" xmlns="http://www.w3.org/2000/svg">
<g clip-path="url(#clip0_1_31707)">
<path d="M45.9967 10.5253C45.9967 10.1651 45.7677 9.73666 45.0619 9.3237L31.4145 0.903211C30.5076 0.502679 29.0466 0.217028 27.3287 0.971519L2.84446 14.8225C2.84446 14.8225 -0.151837 16.6916 0.00602576 19.6848L26.8891 6.51998C28.6906 5.74375 29.805 5.94247 31.3 6.67522L45.0588 13.8631C45.7646 14.2015 45.9998 14.5244 45.9967 14.6672V10.5253Z" fill="white"/>
<path d="M45.9995 15.7917C45.9995 15.4315 45.7643 14.9689 45.0616 14.618L31.4173 7.83384C30.5104 7.4333 29.0494 7.15076 27.3315 7.90214C27.3315 7.90214 12.9969 14.587 7.82148 16.9933C7.81839 16.9964 4.03897 18.8035 3.62109 22.4051L26.895 13.4537C28.8265 12.9476 30.6466 13.4351 31.3059 13.609L45.0647 19.1574C45.7921 19.4462 46.0057 19.679 46.0026 19.8188V15.7917H45.9995Z" fill="white"/>
<path d="M45.9966 20.7997C45.9966 20.4396 45.7181 20.1167 45.0619 19.9117L31.4175 14.8911C30.7582 14.7172 29.2601 14.4533 27.3317 14.9594C27.3317 14.9594 13.0033 20.0763 12.505 20.2595C8.55529 21.6971 7.91455 25.6434 7.91455 25.6434L26.8921 20.511C28.8236 20.0049 30.6437 20.4924 31.303 20.6662L45.0619 24.4511C45.7676 24.6716 46.0028 24.8485 45.9997 24.9914L45.9966 20.7997Z" fill="white"/>
<path d="M45.0592 24.4482L38.4444 22.6318L25.6792 24.6034C25.6761 24.6034 20.9092 25.3859 20.6802 28.5032L44.9415 25.4169L45.0561 25.4014C45.4925 25.3269 46.938 25.035 45.0592 24.4482Z" fill="#DDDBE4"/>
</g>
<defs>
<clipPath id="clip0_1_31707">
<rect width="46" height="28" fill="white" transform="translate(0 0.5)"/>
</clipPath>
</defs>
</svg>
