<svg width="520" height="520" xmlns="http://www.w3.org/2000/svg" xmlns:xlink="http://www.w3.org/1999/xlink" xml:space="preserve" overflow="hidden"><defs><clipPath id="clip0"><rect x="0" y="0" width="520" height="520"/></clipPath></defs><g clip-path="url(#clip0)"><g><g><g><g><path d="M519.963 118.982C519.963 114.91 517.374 110.067 509.396 105.398L355.12 10.2102C344.869 5.68246 328.353 2.45336 308.933 10.9824L32.1548 167.559C32.1548 167.559-1.71642 188.688 0.0681173 222.524L303.964 73.7041C324.329 64.9294 336.926 67.1758 353.826 75.459L509.36 156.713C517.339 160.539 519.998 164.189 519.963 165.803L519.963 118.982Z" fill="#FFFFFF" transform="matrix(1 0 0 1.00053 0 95.9999)"/><path d="M519.994 178.515C519.994 174.443 517.336 169.214 509.392 165.247L355.152 88.5565C344.9 84.0286 328.385 80.8347 308.965 89.3286 308.965 89.3286 146.921 164.897 88.4167 192.098 88.3818 192.133 45.6579 212.561 40.9341 253.275L304.03 152.085C325.865 146.364 346.44 151.875 353.893 153.841L509.427 216.562C517.65 219.827 520.065 222.458 520.029 224.039L520.029 178.515 519.994 178.515Z" fill="#FFFFFF" transform="matrix(1 0 0 1.00053 0 95.9999)"/><path d="M519.962 235.127C519.962 231.056 516.813 227.406 509.396 225.089L355.154 168.334C347.701 166.368 330.766 163.385 308.967 169.106 308.967 169.106 146.994 226.95 141.361 229.02 96.712 245.272 89.4688 289.882 89.4688 289.882L303.998 231.864C325.832 226.142 346.407 231.653 353.86 233.618L509.396 276.404C517.373 278.896 520.032 280.896 519.997 282.512L519.962 235.127Z" fill="#FFFFFF" transform="matrix(1 0 0 1.00053 0 95.9999)"/><path d="M509.365 276.371 434.589 255.838 290.287 278.125C290.252 278.125 236.365 286.971 233.776 322.21L508.034 287.322 509.33 287.146C514.263 286.304 530.604 283.004 509.365 276.371Z" fill="#DDDBE4" transform="matrix(1 0 0 1.00053 0 95.9999)"/></g></g></g></g></g></svg>